<svg xmlns="http://www.w3.org/2000/svg" width="64" height="64" enable-background="new 0 0 64 64" viewBox="0 0 64 64"><path fill="#010101" d="M62.218,31.217h-1.919v-4.799c0-0.535-0.435-0.969-0.97-0.969h-9.809V12.125
		c0-0.535-0.434-0.971-0.97-0.971h-2.917V6.729c0-0.537-0.434-0.971-0.97-0.971h-1.789V0.971c0-0.535-0.434-0.971-0.97-0.971H22.095
		c-0.536,0-0.97,0.436-0.97,0.971v4.787h-1.789c-0.535,0-0.97,0.434-0.97,0.971v4.426h-2.917c-0.536,0-0.97,0.436-0.97,0.971v13.324
		H4.661c-0.535,0-0.969,0.434-0.969,0.969v4.799h-1.91c-0.536,0-0.97,0.434-0.97,0.971v30.844c0,0.535,0.434,0.969,0.97,0.969
		h60.436c0.535,0,0.97-0.434,0.97-0.969V32.188C63.188,31.65,62.753,31.217,62.218,31.217z M14.479,62.063H2.752V33.156h11.728
		V62.063z M14.479,31.217H5.631v-3.828h8.849V31.217z M23.064,1.939h17.872v3.818H23.064V1.939z M20.306,7.697h23.389v3.457H20.306
		V7.697z M37.796,62.063H26.194V50.744c0-3.199,2.603-5.803,5.811-5.803c3.193,0,5.792,2.604,5.792,5.803V62.063z M47.581,62.063
		h-7.845V50.744c0-4.27-3.468-7.742-7.741-7.742c-4.268,0-7.741,3.473-7.741,7.742v11.318h-7.835v-29.85
		c0-0.01,0.005-0.018,0.005-0.025c0-0.01-0.005-0.018-0.005-0.027v-5.715c0-0.01,0.005-0.018,0.005-0.027
		c0-0.008-0.005-0.016-0.005-0.025V13.094h31.162V62.063z M49.521,27.389h8.839v3.828h-8.839V27.389z M61.248,62.063H49.521V33.156
		h11.728V62.063z"/><path fill="#010101" d="M19.273 22.311h5.392c.536 0 .97-.434.97-.969v-5.393c0-.537-.434-.971-.97-.971h-5.392c-.535 0-.97.434-.97.971v5.393C18.304 21.877 18.738 22.311 19.273 22.311zM20.243 16.918h3.452v3.453h-3.452V16.918zM29.304 22.311h5.392c.536 0 .97-.434.97-.969v-5.393c0-.537-.434-.971-.97-.971h-5.392c-.536 0-.97.434-.97.971v5.393C28.334 21.877 28.769 22.311 29.304 22.311zM30.274 16.918h3.452v3.453h-3.452V16.918zM39.335 22.311h5.392c.536 0 .97-.434.97-.969v-5.393c0-.537-.434-.971-.97-.971h-5.392c-.535 0-.97.434-.97.971v5.393C38.365 21.877 38.8 22.311 39.335 22.311zM40.305 16.918h3.452v3.453h-3.452V16.918zM19.273 31.715h5.392c.536 0 .97-.436.97-.971v-5.391c0-.537-.434-.971-.97-.971h-5.392c-.535 0-.97.434-.97.971v5.391C18.304 31.279 18.738 31.715 19.273 31.715zM20.243 26.322h3.452v3.453h-3.452V26.322zM29.304 31.715h5.392c.536 0 .97-.436.97-.971v-5.391c0-.537-.434-.971-.97-.971h-5.392c-.536 0-.97.434-.97.971v5.391C28.334 31.279 28.769 31.715 29.304 31.715zM30.274 26.322h3.452v3.453h-3.452V26.322zM39.335 31.715h5.392c.536 0 .97-.436.97-.971v-5.391c0-.537-.434-.971-.97-.971h-5.392c-.535 0-.97.434-.97.971v5.391C38.365 31.279 38.8 31.715 39.335 31.715zM40.305 26.322h3.452v3.453h-3.452V26.322zM19.273 41.119h5.392c.536 0 .97-.434.97-.971v-5.393c0-.535-.434-.969-.97-.969h-5.392c-.535 0-.97.434-.97.969v5.393C18.304 40.686 18.738 41.119 19.273 41.119zM20.243 35.727h3.452v3.453h-3.452V35.727zM29.304 41.119h5.392c.536 0 .97-.434.97-.971v-5.393c0-.535-.434-.969-.97-.969h-5.392c-.536 0-.97.434-.97.969v5.393C28.334 40.686 28.769 41.119 29.304 41.119zM30.274 35.727h3.452v3.453h-3.452V35.727zM39.335 41.119h5.392c.536 0 .97-.434.97-.971v-5.393c0-.535-.434-.969-.97-.969h-5.392c-.535 0-.97.434-.97.969v5.393C38.365 40.686 38.8 41.119 39.335 41.119zM40.305 35.727h3.452v3.453h-3.452V35.727zM52.691 45.068h5.392c.535 0 .969-.434.969-.971v-5.391c0-.537-.434-.971-.969-.971h-5.392c-.536 0-.97.434-.97.971v5.391C51.722 44.635 52.156 45.068 52.691 45.068zM53.661 39.676h3.453v3.453h-3.453V39.676zM52.691 57.48h5.392c.535 0 .969-.434.969-.969v-5.393c0-.535-.434-.969-.969-.969h-5.392c-.536 0-.97.434-.97.969v5.393C51.722 57.047 52.156 57.48 52.691 57.48zM53.661 52.09h3.453v3.451h-3.453V52.09zM5.923 45.068h5.391c.535 0 .97-.434.97-.971v-5.391c0-.537-.435-.971-.97-.971H5.923c-.536 0-.97.434-.97.971v5.391C4.953 44.635 5.387 45.068 5.923 45.068zM6.893 39.676h3.452v3.453H6.893V39.676zM5.923 57.48h5.391c.535 0 .97-.434.97-.969v-5.393c0-.535-.435-.969-.97-.969H5.923c-.536 0-.97.434-.97.969v5.393C4.953 57.047 5.387 57.48 5.923 57.48zM6.893 52.09h3.452v3.451H6.893V52.09zM28.232 51.563c-.536 0-.97.434-.97.969v1.939c0 .537.434.971.97.971s.97-.434.97-.971v-1.939C29.202 51.996 28.768 51.563 28.232 51.563z"/></svg>