<svg xmlns="http://www.w3.org/2000/svg" viewBox="0 0 64 64"><g data-name="Filled outline"><rect width="10" height="4" x="42" y="50" fill="#e3e3e3" transform="rotate(90 47 52)"/><path fill="#d4d4d4" d="M47,53V47H45V57h4V55h0A2,2,0,0,1,47,53Z"/><rect width="10" height="4" x="51" y="50" fill="#e3e3e3" transform="rotate(90 56 52)"/><path fill="#d4d4d4" d="M56,53V47H54V57h4V55h0A2,2,0,0,1,56,53Z"/><rect width="10" height="4" x="33" y="50" fill="#e3e3e3" transform="rotate(90 38 52)"/><rect width="1" height="4" x="37.5" y="45.5" fill="#d4d4d4" transform="rotate(90 38 47.5)"/><rect width="1" height="4" x="46.5" y="45.5" fill="#d4d4d4" transform="rotate(90 47 47.5)"/><rect width="1" height="4" x="55.5" y="45.5" fill="#d4d4d4" transform="rotate(90 56 47.5)"/><path fill="#d4d4d4" d="M38,53V47H36V57h4V55h0A2,2,0,0,1,38,53Z"/><rect width="28" height="4" x="33" y="57" fill="#e3e3e3"/><path fill="#d4d4d4" d="M35,57H33v4H61V59H37A2,2,0,0,1,35,57Z"/><polygon fill="#e3e3e3" points="59.444 42 47 35 34.555 42 33 42 33 47 61 47 61 42 59.444 42"/><path fill="#d4d4d4" d="M38.813,44A2.812,2.812,0,0,1,36,41.187h0L34.555,42H33v5H61V44Z"/><path fill="#d4d4d4" d="M55.889,40h-12a1,1,0,0,1-.483-1.876l4.623-2.546L47,35,34.555,42H59.444Z"/><path fill="#facf5b" d="M43.672,8.439l1.266-.673a2,2,0,1,0-1.876-3.532l-5.643,3a2,2,0,0,0-.772,2.8l3.643,6a2,2,0,0,0,3.42-2.076l-.9-1.485C49.278,15.9,52,20.6,52,28a2,2,0,0,0,4,0C56,18.725,52.158,12.59,43.672,8.439Z"/><path fill="#f0af4c" d="M20.328,55.561l-1.266.673a2,2,0,1,0,1.876,3.532l5.643-3a2,2,0,0,0,.772-2.8l-3.643-6a2,2,0,0,0-3.42,2.076l.9,1.485C14.722,48.1,12,43.4,12,36a2,2,0,0,0-4,0C8,45.275,11.842,51.41,20.328,55.561Z"/><rect width="10" height="4" x="12" y="18" fill="#e3e3e3" transform="rotate(90 17 20)"/><path fill="#d4d4d4" d="M17,21V15H15V25h4V23h0A2,2,0,0,1,17,21Z"/><rect width="10" height="4" x="21" y="18" fill="#e3e3e3" transform="rotate(90 26 20)"/><path fill="#d4d4d4" d="M26,21V15H24V25h4V23h0A2,2,0,0,1,26,21Z"/><rect width="10" height="4" x="3" y="18" fill="#e3e3e3" transform="rotate(90 8 20)"/><rect width="1" height="4" x="7.5" y="13.5" fill="#d4d4d4" transform="rotate(90 8 15.5)"/><rect width="1" height="4" x="16.5" y="13.5" fill="#d4d4d4" transform="rotate(90 17 15.5)"/><rect width="1" height="4" x="25.5" y="13.5" fill="#d4d4d4" transform="rotate(90 26 15.5)"/><path fill="#d4d4d4" d="M8,21V15H6V25h4V23h0A2,2,0,0,1,8,21Z"/><rect width="28" height="4" x="3" y="25" fill="#e3e3e3"/><path fill="#d4d4d4" d="M5,25H3v4H31V27H7A2,2,0,0,1,5,25Z"/><polygon fill="#e3e3e3" points="29.444 10 17 3 4.555 10 3 10 3 15 31 15 31 10 29.444 10"/><path fill="#d4d4d4" d="M8.813,12A2.812,2.812,0,0,1,6,9.187H6L4.555,10H3v5H31V12Z"/><path fill="#d4d4d4" d="M25.889,8h-12a1,1,0,0,1-.483-1.876l4.623-2.546L17,3,4.555,10H29.444Z"/><path d="M46.869 6.878a3 3 0 0 0-4.277-3.526l-5.642 3a3 3 0 0 0-1.157 4.206l3.643 6A3 3 0 0 0 45 15.006c4.174 3.043 6 7.078 6 12.994a3 3 0 0 0 6 0c0-9.024-3.576-15.293-11.22-19.585A2.972 2.972 0 0 0 46.869 6.878zM55 28a1 1 0 0 1-2 0c0-7.788-3-12.849-9.724-16.407A1 1 0 0 0 41.954 13l.9 1.485a1 1 0 0 1-.336 1.374 1.02 1.02 0 0 1-1.374-.334l-3.642-6a1 1 0 0 1 .386-1.4l5.641-3a1 1 0 1 1 .939 1.766L43.2 7.557a1 1 0 0 0 .03 1.781C51.371 13.318 55 19.073 55 28zM17.352 59.409a3 3 0 0 0 4.056 1.24l5.643-3a3 3 0 0 0 1.156-4.206l-3.643-6A3 3 0 0 0 19 49C14.824 45.952 13 41.917 13 36a3 3 0 0 0-6 0c0 9.024 3.576 15.293 11.221 19.585A3 3 0 0 0 17.352 59.409zM9 36a1 1 0 0 1 2 0c0 7.788 3 12.849 9.724 16.407a1 1 0 0 0 1.322-1.4l-.9-1.485a1 1 0 0 1 .336-1.374 1.018 1.018 0 0 1 1.374.334l3.642 6a1 1 0 0 1-.386 1.4l-5.641 3a1 1 0 1 1-.939-1.766l1.266-.674a1 1 0 0 0-.03-1.781C12.629 50.682 9 44.927 9 36zM3 30H31a1 1 0 0 0 1-1V25a1 1 0 0 0-1-1H29V16h2a1 1 0 0 0 1-1V10a1 1 0 0 0-1-1H29.706L17.49 2.129a1 1 0 0 0-.98 0L4.294 9H3a1 1 0 0 0-1 1v5a1 1 0 0 0 1 1H5v8H3a1 1 0 0 0-1 1v4A1 1 0 0 0 3 30zm24-6H25V16h2zm-7 0V16h3v8zm-9 0V16h3v8zm5-8h2v8H16zM4 11h9a1 1 0 0 0 0-2H8.373L17 4.147 25.627 9H21a1 1 0 0 0 0 2h8a.923.923 0 0 0 .181-.037.977.977 0 0 0 .263.037H30v3H4zm3 5H9v8H7zM4 26H30v2H4z"/><path d="M17 11a1 1 0 1 0-1-1A1 1 0 0 0 17 11zM61 41H59.706L47.49 34.129a1 1 0 0 0-.98 0L34.294 41H33a1 1 0 0 0-1 1v5a1 1 0 0 0 1 1h2v8H33a1 1 0 0 0-1 1v4a1 1 0 0 0 1 1H61a1 1 0 0 0 1-1V57a1 1 0 0 0-1-1H59V48h2a1 1 0 0 0 1-1V42A1 1 0 0 0 61 41zM37 48h2v8H37zm7 0v8H41V48zm9 0v8H50V48zm-5 8H46V48h2zm12 4H34V58H60zm-3-4H55V48h2zm3-10H34V43h9a1 1 0 0 0 0-2H38.373L47 36.147 55.627 41H51a1 1 0 0 0 0 2h8a.923.923 0 0 0 .181-.037.977.977 0 0 0 .263.037H60z"/><circle cx="47" cy="42" r="1"/></g></svg>